<?xml version="1.0" encoding="UTF-8" standalone="no"?>
<!-- Created with Inkscape (http://www.inkscape.org/) -->

<svg
   width="210mm"
   height="297mm"
   viewBox="0 0 210 297"
   version="1.1"
   id="svg1058728"
   inkscape:version="1.2.2 (732a01da63, 2022-12-09)"
   sodipodi:docname="desenho-12.svg"
   xmlns:inkscape="http://www.inkscape.org/namespaces/inkscape"
   xmlns:sodipodi="http://sodipodi.sourceforge.net/DTD/sodipodi-0.dtd"
   xmlns="http://www.w3.org/2000/svg"
   xmlns:svg="http://www.w3.org/2000/svg">
  <sodipodi:namedview
     id="namedview1058730"
     pagecolor="#ffffff"
     bordercolor="#000000"
     borderopacity="0.25"
     inkscape:showpageshadow="2"
     inkscape:pageopacity="0.0"
     inkscape:pagecheckerboard="0"
     inkscape:deskcolor="#d1d1d1"
     inkscape:document-units="mm"
     showgrid="false"
     inkscape:zoom="2"
     inkscape:cx="359.5"
     inkscape:cy="468.5"
     inkscape:window-width="1920"
     inkscape:window-height="1009"
     inkscape:window-x="-8"
     inkscape:window-y="-8"
     inkscape:window-maximized="1"
     inkscape:current-layer="layer1" />
  <defs
     id="defs1058725">
    <pattern
       id="EMFhbasepattern"
       patternUnits="userSpaceOnUse"
       width="6"
       height="6"
       x="0"
       y="0" />
  </defs>
  <g
     inkscape:label="Camada 1"
     inkscape:groupmode="layer"
     id="layer1">
    <path
       style="fill:#282828;fill-opacity:1;fill-rule:nonzero;stroke:none;stroke-width:0.042;stroke-dasharray:none;stroke-opacity:1;stop-color:#000000"
       d="m 56.309718,122.91381 -0.004,20.76912 h -3.514955 v -20.77307 c 1.271309,0.004 2.409468,-0.005 3.518913,0.004 z"
       id="path1044560"
       sodipodi:nodetypes="cccccc" />
    <path
       style="fill:#282828;fill-opacity:1;fill-rule:nonzero;stroke:none;stroke-width:0.0436365;stroke-dasharray:none;stroke-opacity:1;stop-color:#000000"
       d="M 52.794817,147.05228 H 71.61753 v 3.06436 H 52.790805 Z"
       id="path1044564" />
    <path
       style="fill:#282828;fill-opacity:1;fill-rule:nonzero;stroke:none;stroke-width:0.042;stroke-dasharray:none;stroke-opacity:1;stop-color:#000000"
       d="m 131.81399,122.97319 h 3.45162 v 10.47655 l -3.452,3.452 z"
       id="path1044568" />
    <path
       style="fill:#282828;fill-opacity:1;fill-rule:nonzero;stroke:none;stroke-width:0.042;stroke-dasharray:none;stroke-opacity:1;stop-color:#000000"
       d="m 131.81399,150.14285 h 3.40412 v -8.37573 l 4.72619,-4.72619 9.85613,12.99109 h 3.76828 l -11.49485,-15.15231 10.86234,-11.90916 h -3.58263 l -17.53809,18.5625 z"
       id="path1044624" />
    <path
       style="fill:#282828;fill-opacity:1;fill-rule:nonzero;stroke:#333333;stroke-width:0.042;stroke-dasharray:none;stroke-opacity:1;stop-color:#000000"
       d="m 101.44553,137.95547 3.53785,0.0112 c 0.65978,6.71707 5.84449,9.18305 9.12794,9.21489 3.30071,0.032 8.45545,-2.29794 9.30989,-9.21489 h 3.51496 c -0.45143,5.72556 -5.15364,12.22839 -12.92707,12.33039 -7.46975,-0.0677 -12.12637,-6.39951 -12.56357,-12.34204 z"
       id="path1044688-9-6"
       sodipodi:nodetypes="ccsccccc" />
    <path
       style="fill:#282828;fill-opacity:1;fill-rule:nonzero;stroke:#333333;stroke-width:0.042;stroke-dasharray:none;stroke-opacity:1;stop-color:#000000"
       d="m 98.214847,135.0968 -3.53784,-0.0112 c -0.65978,-6.71707 -5.84449,-9.18305 -9.12794,-9.21489 -3.30071,-0.032 -8.45545,2.29794 -9.30989,9.21489 h -3.51496 c 0.45143,-5.72556 5.15364,-12.22839 12.92707,-12.33039 7.46974,0.0677 12.12636,6.39951 12.56356,12.34204 z"
       id="path1044688-9-5"
       sodipodi:nodetypes="ccsccccc" />
    <path
       style="fill:none;fill-opacity:1;fill-rule:nonzero;stroke:none;stroke-width:0.0100534;stroke-dasharray:none;stroke-opacity:1;stop-color:#000000"
       d="m 75.537788,145.18708 c -1.0208,-1.43899 -1.753693,-2.94946 -2.197251,-4.52845 -0.213571,-0.76027 -0.44165,-1.98776 -0.44165,-2.3769 v -0.25486 l 0.769932,0.0414 c 0.423466,0.0228 1.189678,0.0414 1.702694,0.0414 h 0.93276 l 0.07389,0.52249 c 0.225801,1.59671 0.833401,3.2785 1.588895,4.39793 0.106746,0.15816 0.185684,0.31005 0.175424,0.33753 -0.02503,0.067 -2.244919,2.21529 -2.289152,2.21529 -0.0191,0 -0.161102,-0.17812 -0.315539,-0.39583 z"
       id="path1045659" />
    <path
       style="fill:none;fill-opacity:1;fill-rule:nonzero;stroke:none;stroke-width:0.0100534;stroke-dasharray:none;stroke-opacity:1;stop-color:#000000"
       d="m 84.742073,150.29079 c -1.218708,-0.0852 -2.672268,-0.3958 -3.625048,-0.77454 -1.856894,-0.73815 -3.481427,-1.87812 -4.806717,-3.37298 l -0.385125,-0.43439 1.159015,-1.12739 1.159013,-1.12739 0.45149,0.54246 c 1.420884,1.70718 3.590126,2.90457 5.829472,3.2178 l 0.787826,0.11019 3.2e-5,1.50415 3.4e-5,1.50415 -0.142499,-0.0111 c -0.07837,-0.006 -0.270746,-0.02 -0.427493,-0.031 z"
       id="path1046489" />
    <path
       style="fill:none;fill-opacity:1;fill-rule:nonzero;stroke:none;stroke-width:0.0100534;stroke-dasharray:none;stroke-opacity:1;stop-color:#000000"
       d="m 85.438729,148.82506 v -1.51307 l 0.593529,-0.039 c 2.177624,-0.14305 4.179811,-1.07677 5.830353,-2.71901 l 0.755618,-0.75181 1.096498,1.09515 1.0965,1.09515 -0.49047,0.49675 c -2.290524,2.31988 -4.992441,3.54692 -8.391199,3.81079 l -0.490829,0.0381 z"
       id="path1048561" />
    <g
       id="g464"
       style="display:none">
      <path
         style="fill:#ff7e00;fill-opacity:1;fill-rule:nonzero;stroke:none;stroke-width:0.000849548;stroke-dasharray:none;stroke-opacity:1;stop-color:#000000"
         d="m 104.46131,127.40736 c -0.8171,1.01124 -1.6614,2.53027 -2.14283,3.85531 -0.43637,1.20099 -0.65494,2.17377 -0.80592,3.58687 l -0.009,0.0843 h 1.74801 1.74802 l 0.015,-0.1652 c 0.0657,-0.72502 0.28018,-1.71342 0.54214,-2.4984 0.29126,-0.87278 0.63841,-1.59426 1.12928,-2.34701 l 0.2113,-0.32404 -0.14217,-0.13887 c -0.0782,-0.0764 -0.48102,-0.46596 -0.89517,-0.86573 -0.41415,-0.39977 -0.88052,-0.8524 -1.03638,-1.00585 l -0.28337,-0.27899 z"
         id="path1056519-2" />
      <path
         style="fill:#41ff00;fill-opacity:1;fill-rule:nonzero;stroke:none;stroke-width:0.000849489;stroke-dasharray:none;stroke-opacity:1;stop-color:#000000"
         d="m 113.48815,122.67896 c -3.38852,0.1793 -6.445,1.70017 -8.69929,4.32865 -0.11674,0.13611 -0.22465,0.26311 -0.2398,0.28222 -0.0235,0.0296 0.14633,0.20259 1.14517,1.16676 0.645,0.62262 1.19288,1.14201 1.20175,1.14201 0.009,0 0.0704,-0.0935 0.17851,-0.23446 0.42541,-0.55486 1.01575,-1.14669 1.54157,-1.56837 0.31397,-0.25179 0.93376,-0.67382 1.24896,-0.85046 0.91773,-0.51429 1.85309,-0.86418 2.83549,-1.06067 0.43055,-0.0956 0.92725,-0.1323 1.34185,-0.17245 l -0.003,-1.5249 v -1.52386 l -0.20817,0.004 c -0.11448,0.002 -0.26892,0.007 -0.34318,0.0113 z"
         id="path1056659-0"
         sodipodi:nodetypes="csssssssccccccc" />
      <path
         style="fill:#d500ff;fill-opacity:1;fill-rule:nonzero;stroke:none;stroke-width:0.000599753;stroke-dasharray:none;stroke-opacity:1;stop-color:#000000"
         d="m 122.3949,128.17012 -1.11377,1.11441 0.088,0.13522 c 0.0706,0.10847 0.48543,0.70738 0.62959,0.95607 0.71099,1.22654 1.19236,2.66566 1.42534,4.26127 l 0.0434,0.29694 h 1.73311 1.73311 l -0.006,-0.0595 c -0.004,-0.0327 -0.0174,-0.16305 -0.031,-0.28961 -0.26379,-2.47064 -1.3406,-5.02985 -2.98042,-7.08345 -0.22664,-0.28383 -0.37221,-0.45405 -0.38831,-0.45405 -0.006,0 -0.51552,0.50521 -1.13264,1.1227 z"
         id="path1056941-2"
         sodipodi:nodetypes="ccssscccccsscc" />
      <path
         style="fill:#0087ff;fill-opacity:1;fill-rule:nonzero;stroke:none;stroke-width:0.00120445;stroke-dasharray:none;stroke-opacity:1;stop-color:#000000"
         d="m 114.03801,124.18452 v 1.52877 l 0.40633,0.0225 c 1.89236,0.10492 3.65028,0.75676 5.17741,1.91981 0.32433,0.247 1.20726,1.09724 1.50995,1.45404 l 0.15648,0.18445 1.1241,-1.12541 1.1241,-1.12542 -0.37869,-0.39744 c -1.4563,-1.52842 -3.24714,-2.67301 -5.20251,-3.32509 -1.07641,-0.35896 -2.22586,-0.56774 -3.54271,-0.64347 l -0.37446,-0.0215 z"
         id="path1056980-3" />
    </g>
    <path
       style="fill:#ff7e00;fill-opacity:1;fill-rule:nonzero;stroke:none;stroke-width:0.000849548;stroke-dasharray:none;stroke-opacity:1;stop-color:#000000"
       d="m 75.813443,145.58902 c -0.8171,-1.01124 -1.6614,-2.53027 -2.14283,-3.85531 -0.43637,-1.20099 -0.65494,-2.17377 -0.80592,-3.58687 l -0.009,-0.0843 h 1.74801 1.74802 l 0.015,0.1652 c 0.0657,0.72502 0.28018,1.71342 0.54214,2.4984 0.29126,0.87278 0.63841,1.59426 1.12928,2.34701 l 0.2113,0.32404 -0.14217,0.13887 c -0.0782,0.0764 -0.48102,0.46596 -0.89517,0.86573 -0.41415,0.39977 -0.88052,0.8524 -1.03638,1.00585 l -0.28337,0.27899 z"
       id="path1056519-2-9" />
    <path
       style="fill:#41ff00;fill-opacity:1;fill-rule:nonzero;stroke:none;stroke-width:0.000849489;stroke-dasharray:none;stroke-opacity:1;stop-color:#000000"
       d="m 84.840283,150.31742 c -3.38852,-0.1793 -6.445,-1.70017 -8.69929,-4.32865 -0.11674,-0.13611 -0.22465,-0.26311 -0.2398,-0.28222 -0.0235,-0.0296 0.14633,-0.20259 1.14517,-1.16676 0.645,-0.62262 1.19288,-1.14201 1.20175,-1.14201 0.009,0 0.0704,0.0935 0.17851,0.23446 0.42541,0.55486 1.01575,1.14669 1.54157,1.56837 0.31397,0.25179 0.93376,0.67382 1.24896,0.85046 0.91773,0.51429 1.85309,0.86418 2.83549,1.06067 0.43055,0.0956 0.92725,0.1323 1.34185,0.17245 l -0.003,1.5249 v 1.52386 l -0.20817,-0.004 c -0.11448,-0.002 -0.26892,-0.007 -0.34318,-0.0113 z"
       id="path1056659-0-5"
       sodipodi:nodetypes="csssssssccccccc" />
    <path
       style="fill:#d500ff;fill-opacity:1;fill-rule:nonzero;stroke:none;stroke-width:0.000607902;stroke-dasharray:none;stroke-opacity:1;stop-color:#000000"
       d="m 93.664049,144.88654 -1.089079,-1.0872 c 0.256111,-0.36908 0.461045,-0.7603 0.685651,-1.13816 0.723994,-1.23747 1.214165,-2.68941 1.451405,-4.29924 l 0.04419,-0.29959 h 1.764788 1.764799 l -0.0061,0.06 c -0.0041,0.033 -0.01772,0.1645 -0.03157,0.29219 -0.268613,2.49266 -1.365111,5.07467 -3.034904,7.14657 -0.230784,0.28636 -0.379016,0.4581 -0.39541,0.4581 -0.0061,0 -0.524946,-0.50971 -1.15335,-1.1327 z"
       id="path1056941-2-8"
       sodipodi:nodetypes="cccscccccsscc" />
    <path
       style="fill:#0087ff;fill-opacity:1;fill-rule:nonzero;stroke:none;stroke-width:0.00120445;stroke-dasharray:none;stroke-opacity:1;stop-color:#000000"
       d="m 85.390143,148.81186 v -1.52877 l 0.40633,-0.0225 c 1.89236,-0.10492 3.65028,-0.75676 5.17741,-1.91981 0.32433,-0.247 1.20726,-1.09724 1.50995,-1.45404 l 0.15648,-0.18445 1.124104,1.12541 1.1241,1.12542 -0.37869,0.39744 c -1.456304,1.52842 -3.247144,2.67301 -5.202514,3.32509 -1.07641,0.35896 -2.22586,0.56774 -3.54271,0.64347 l -0.37446,0.0215 z"
       id="path1056980-3-0" />
    <path
       style="fill:none;fill-opacity:1;fill-rule:nonzero;stroke:none;stroke-width:0.0100534;stroke-dasharray:none;stroke-opacity:1;stop-color:#000000"
       d="m 104.66391,128.11333 c -1.0208,1.43899 -1.75369,2.94946 -2.19725,4.52845 -0.21357,0.76027 -0.44165,1.98776 -0.44165,2.3769 v 0.25486 l 0.76994,-0.0414 c 0.42346,-0.0228 1.18967,-0.0414 1.70269,-0.0414 h 0.93276 l 0.0739,-0.52249 c 0.2258,-1.59671 0.8334,-3.2785 1.58889,-4.39793 0.10675,-0.15816 0.18569,-0.31005 0.17543,-0.33753 -0.025,-0.067 -2.24492,-2.21529 -2.28915,-2.21529 -0.0191,0 -0.16111,0.17812 -0.31554,0.39583 z"
       id="path1045659-4" />
    <path
       style="fill:none;fill-opacity:1;fill-rule:nonzero;stroke:none;stroke-width:0.0100534;stroke-dasharray:none;stroke-opacity:1;stop-color:#000000"
       d="m 113.8682,123.00962 c -1.21871,0.0852 -2.67227,0.3958 -3.62505,0.77454 -1.85689,0.73815 -3.48143,1.87812 -4.80672,3.37298 l -0.38512,0.43439 1.15901,1.12739 1.15902,1.12739 0.45149,-0.54246 c 1.42088,-1.70718 3.59012,-2.90457 5.82947,-3.2178 l 0.78783,-0.11019 3e-5,-1.50415 3e-5,-1.50415 -0.1425,0.0111 c -0.0784,0.006 -0.27074,0.02 -0.42749,0.031 z"
       id="path1046489-7" />
    <path
       style="fill:none;fill-opacity:1;fill-rule:nonzero;stroke:none;stroke-width:0.0100534;stroke-dasharray:none;stroke-opacity:1;stop-color:#000000"
       d="m 114.56486,124.47535 v 1.51307 l 0.59352,0.039 c 2.17763,0.14305 4.17982,1.07677 5.83036,2.71901 l 0.75562,0.75181 1.09649,-1.09515 1.0965,-1.09515 -0.49047,-0.49675 c -2.29052,-2.31988 -4.99244,-3.54692 -8.3912,-3.81079 l -0.49082,-0.0381 z"
       id="path1048561-1" />
    <g
       id="g458"
       style="display:inline"
       transform="translate(0.02338608,-0.00584652)">
      <path
         style="fill:#ff7e00;fill-opacity:1;fill-rule:nonzero;stroke:none;stroke-width:0.000849548;stroke-dasharray:none;stroke-opacity:1;stop-color:#000000"
         d="m 104.43677,127.40737 c -0.8171,1.01124 -1.6614,2.53027 -2.14283,3.85531 -0.43637,1.20099 -0.65494,2.17377 -0.80592,3.58687 l -0.009,0.0843 h 1.74801 1.74802 l 0.015,-0.1652 c 0.0657,-0.72502 0.28018,-1.71342 0.54214,-2.4984 0.29126,-0.87278 0.63841,-1.59426 1.12928,-2.34701 l 0.2113,-0.32404 -0.14217,-0.13887 c -0.0782,-0.0764 -0.48102,-0.46596 -0.89517,-0.86573 -0.41415,-0.39977 -0.88052,-0.8524 -1.03638,-1.00585 l -0.28337,-0.27899 z"
         id="path1056519-2-9-0" />
      <path
         style="fill:#41ff00;fill-opacity:1;fill-rule:nonzero;stroke:none;stroke-width:0.000849489;stroke-dasharray:none;stroke-opacity:1;stop-color:#000000"
         d="m 113.46361,122.67897 c -3.38852,0.1793 -6.445,1.70017 -8.69929,4.32865 -0.11674,0.13611 -0.22465,0.26311 -0.2398,0.28222 -0.0235,0.0296 0.14633,0.20259 1.14517,1.16676 0.645,0.62262 1.19288,1.14201 1.20175,1.14201 0.009,0 0.0704,-0.0935 0.17851,-0.23446 0.42541,-0.55486 1.01575,-1.14669 1.54157,-1.56837 0.31397,-0.25179 0.93376,-0.67382 1.24896,-0.85046 0.91773,-0.51429 1.85309,-0.86418 2.83549,-1.06067 0.43055,-0.0956 0.92725,-0.1323 1.34185,-0.17245 l -0.003,-1.5249 v -1.52386 l -0.20817,0.004 c -0.11448,0.002 -0.26892,0.007 -0.34318,0.0113 z"
         id="path1056659-0-5-7"
         sodipodi:nodetypes="csssssssccccccc" />
      <path
         style="fill:#d500ff;fill-opacity:1;fill-rule:nonzero;stroke:none;stroke-width:0.000607902;stroke-dasharray:none;stroke-opacity:1;stop-color:#000000"
         d="m 122.28738,128.10985 -1.08908,1.0872 c 0.25611,0.36908 0.46104,0.7603 0.68565,1.13816 0.72399,1.23747 1.21416,2.68941 1.4514,4.29924 l 0.0442,0.29959 h 1.76479 1.76479 l -0.006,-0.06 c -0.004,-0.033 -0.0177,-0.1645 -0.0316,-0.29219 -0.26861,-2.49266 -1.36511,-5.07467 -3.03489,-7.14657 -0.23079,-0.28636 -0.37902,-0.4581 -0.39541,-0.4581 -0.006,0 -0.52495,0.50971 -1.15335,1.1327 z"
         id="path1056941-2-8-4"
         sodipodi:nodetypes="cccscccccsscc" />
      <path
         style="fill:#0087ff;fill-opacity:1;fill-rule:nonzero;stroke:none;stroke-width:0.00120445;stroke-dasharray:none;stroke-opacity:1;stop-color:#000000"
         d="m 114.01347,124.18453 v 1.52877 l 0.40633,0.0225 c 1.89236,0.10492 3.65028,0.75676 5.17741,1.91981 0.32433,0.247 1.20726,1.09724 1.50995,1.45404 l 0.15648,0.18445 1.1241,-1.12541 1.1241,-1.12542 -0.37869,-0.39744 c -1.4563,-1.52842 -3.24714,-2.67301 -5.20251,-3.32509 -1.07641,-0.35896 -2.22586,-0.56774 -3.54271,-0.64347 l -0.37446,-0.0215 z"
         id="path1056980-3-0-3" />
    </g>
    <path
       style="fill:#282828;stroke-width:0.0329812;fill-opacity:1"
       d="m 107.41791,156.14281 c -0.11791,-0.0138 -0.28116,-0.0429 -0.36279,-0.0647 -0.15563,-0.0414 -0.52854,-0.22605 -0.52653,-0.26068 5.6e-4,-0.0111 0.0568,-0.11137 0.12469,-0.22289 l 0.12353,-0.20275 0.089,0.0649 c 0.19106,0.13918 0.45132,0.20682 0.79945,0.2078 0.28498,5.5e-4 0.34782,-0.009 0.46231,-0.075 0.19846,-0.11379 0.28394,-0.26068 0.30511,-0.52435 l 0.0178,-0.22255 -0.0794,0.0568 c -0.28017,0.20065 -0.60429,0.27553 -0.95092,0.2197 -0.68347,-0.11006 -1.09762,-0.6773 -0.98864,-1.35404 0.0912,-0.56623 0.50718,-0.91545 1.12717,-0.94624 0.34656,-0.0171 0.52624,0.0264 0.74169,0.17988 l 0.15629,0.11136 0.0101,-0.14873 0.0101,-0.14874 h 0.28198 0.28197 l -0.022,1.16259 c -0.0121,0.63942 -0.0365,1.23852 -0.0543,1.33134 -0.11754,0.61232 -0.71279,0.9342 -1.54668,0.83636 z m 0.56401,-1.52087 c 0.34873,-0.11676 0.53393,-0.4535 0.4541,-0.82571 -0.0784,-0.36565 -0.46361,-0.58099 -0.88378,-0.49407 -0.38704,0.0801 -0.58165,0.32885 -0.55724,0.71234 0.0197,0.30905 0.18923,0.52387 0.48368,0.61283 0.13121,0.0396 0.3766,0.037 0.50324,-0.005 z m -18.208933,-0.14386 v -1.66555 h 0.280348 0.28034 v 0.14996 0.14997 l 0.123677,-0.0966 c 0.210659,-0.16451 0.393225,-0.21314 0.742637,-0.19787 0.386618,0.0169 0.604956,0.11337 0.84085,0.37148 0.367875,0.40252 0.413577,1.11189 0.101952,1.58237 -0.334996,0.50575 -1.113985,0.66747 -1.609338,0.33412 -0.129543,-0.0872 -0.166336,-0.0995 -0.181166,-0.0609 -0.01021,0.0267 -0.01865,0.28476 -0.01865,0.57351 v 0.525 H 90.053289 89.77295 Z m 1.675623,0.20605 c 0.07406,-0.0491 0.17633,-0.15997 0.227221,-0.24654 0.07917,-0.13467 0.09251,-0.19313 0.09251,-0.40475 0,-0.20835 -0.0138,-0.27079 -0.08752,-0.39578 -0.167032,-0.2834 -0.44599,-0.40633 -0.76854,-0.33868 -0.219209,0.046 -0.360838,0.14535 -0.468675,0.32888 -0.220237,0.37479 -0.07898,0.90724 0.290463,1.09474 0.205223,0.10416 0.525531,0.0872 0.71449,-0.0379 z m 19.56425,-0.20605 v -1.66555 h 0.28033 0.28035 v 0.14618 0.14619 l 0.16728,-0.11258 c 0.22342,-0.15035 0.3875,-0.18956 0.72587,-0.17347 0.35157,0.0167 0.57925,0.11815 0.80357,0.35796 0.24894,0.26612 0.29864,0.40858 0.29864,0.85603 0,0.34666 -0.008,0.39629 -0.0926,0.57716 -0.293,0.62619 -1.14546,0.87118 -1.70983,0.49139 l -0.15997,-0.10765 v 0.57495 0.57493 h -0.29682 -0.29683 z m 1.60192,0.25089 c 0.45018,-0.20447 0.55568,-0.86802 0.19673,-1.23736 -0.39224,-0.40358 -1.05932,-0.21461 -1.20545,0.34151 -0.16342,0.62184 0.43732,1.15537 1.00872,0.89585 z m -34.645591,0.50706 c -0.397474,-0.1116 -0.662184,-0.32746 -0.82352,-0.67155 -0.07664,-0.16345 -0.08691,-0.22635 -0.08691,-0.53234 0,-0.32505 0.0068,-0.36081 0.107508,-0.56538 0.125531,-0.255 0.305031,-0.42966 0.564648,-0.54945 0.147592,-0.0681 0.249183,-0.0881 0.498675,-0.0982 0.353532,-0.0144 0.572973,0.0459 0.820679,0.22533 0.27298,0.19775 0.465581,0.61633 0.465581,1.01185 v 0.17448 h -0.956448 c -0.52605,0 -0.956455,0.008 -0.956455,0.0175 0,0.0563 0.105306,0.24325 0.18215,0.3234 0.253033,0.2639 0.857753,0.3013 1.132586,0.07 0.05307,-0.0447 0.109184,-0.0812 0.124708,-0.0812 0.01552,0 0.09091,0.0729 0.167557,0.16181 l 0.139343,0.16181 -0.126783,0.11454 c -0.265412,0.23978 -0.850192,0.3505 -1.25332,0.23733 z m 0.97334,-1.50553 c -0.07874,-0.39374 -0.638481,-0.60278 -1.018187,-0.38026 -0.154721,0.0907 -0.26596,0.23395 -0.305908,0.39401 l -0.02262,0.0907 h 0.683805 0.683817 z m 5.92499,1.50478 c -0.417905,-0.11256 -0.733954,-0.3799 -0.867774,-0.73407 -0.09877,-0.2614 -0.09853,-0.67599 5.55e-4,-0.93826 0.09935,-0.26295 0.338514,-0.51667 0.601525,-0.63812 0.189242,-0.0874 0.239421,-0.0958 0.570292,-0.0958 0.323614,0 0.382943,0.009 0.549314,0.0875 0.364313,0.17079 0.600366,0.51618 0.660537,0.96645 0.01839,0.13768 0.02498,0.27225 0.01469,0.29906 -0.01592,0.0414 -0.159933,0.0488 -0.959708,0.0488 -0.751669,0 -0.94099,0.009 -0.94099,0.043 0,0.0236 0.04284,0.11053 0.09515,0.19304 0.196453,0.30978 0.695403,0.42439 1.075688,0.2471 0.0907,-0.0423 0.185503,-0.10178 0.210686,-0.13222 0.04169,-0.0505 0.05629,-0.0432 0.164903,0.0823 0.17377,0.20076 0.182407,0.22244 0.117248,0.29444 -0.241893,0.26729 -0.846647,0.39687 -1.292153,0.27689 z m 0.980712,-1.45516 c 0,-0.11446 -0.168043,-0.34001 -0.319401,-0.42872 -0.12132,-0.071 -0.19407,-0.0894 -0.353669,-0.0891 -0.294289,5.6e-4 -0.497859,0.11577 -0.616699,0.34864 -0.118259,0.2317 -0.139545,0.22393 0.613655,0.22393 0.608316,0 0.676114,-0.005 0.676114,-0.0548 z m 1.86344,1.46022 c -0.261112,-0.0635 -0.473021,-0.18664 -0.644546,-0.37431 -0.219491,-0.24016 -0.305399,-0.47454 -0.305399,-0.83319 0,-0.39279 0.08823,-0.61174 0.353397,-0.87691 0.271315,-0.27133 0.514025,-0.35704 0.95625,-0.3377 0.36039,0.0157 0.586169,0.1086 0.807321,0.33196 0.218532,0.22072 0.311248,0.444 0.327758,0.78927 l 0.01399,0.29127 h -0.943998 c -1.048519,0 -1.015526,-0.008 -0.87752,0.21519 0.08022,0.12983 0.239791,0.25482 0.391939,0.30701 0.270532,0.0928 0.715115,0.0188 0.901805,-0.15017 0.05427,-0.0491 0.065,-0.0471 0.143996,0.0266 0.04697,0.0438 0.115137,0.12123 0.151578,0.17209 0.06341,0.0885 0.06377,0.0953 0.0079,0.15674 -0.236632,0.26147 -0.832327,0.39233 -1.284597,0.28219 z m 0.957939,-1.49609 c -0.125727,-0.51483 -0.868381,-0.65996 -1.210986,-0.23667 -0.0504,0.0623 -0.101299,0.16142 -0.113078,0.22031 l -0.02138,0.10706 h 0.683802 0.683819 z m 5.83045,1.49517 c -0.221337,-0.0422 -0.60442,-0.18973 -0.60442,-0.23276 0,-0.0431 0.200667,-0.41315 0.224003,-0.41315 0.01381,0 0.05629,0.0218 0.09431,0.0484 0.03809,0.0267 0.185494,0.0804 0.327695,0.11936 0.472809,0.12972 0.873756,0.0451 0.897461,-0.18924 0.01592,-0.15707 -0.07195,-0.20366 -0.577962,-0.30653 -0.252994,-0.0515 -0.504755,-0.11663 -0.559438,-0.14492 -0.145324,-0.0751 -0.300605,-0.26681 -0.326051,-0.40245 -0.07766,-0.41389 0.138885,-0.72467 0.597858,-0.8581 0.326789,-0.095 1.077412,-0.0283 1.300553,0.11577 0.04187,0.027 0.03351,0.0631 -0.05674,0.24611 l -0.105759,0.21448 -0.181994,-0.0833 c -0.250909,-0.11487 -0.702317,-0.12903 -0.875374,-0.0275 -0.100518,0.059 -0.115436,0.0843 -0.115436,0.19597 0,0.10898 0.01557,0.13733 0.103808,0.18886 0.05709,0.0333 0.23519,0.0832 0.395775,0.1108 0.567037,0.0974 0.823549,0.22633 0.922703,0.46363 0.104266,0.24954 0.01205,0.59284 -0.203411,0.75717 -0.272221,0.20763 -0.783202,0.28782 -1.257585,0.19735 z m 2.809126,0.015 c -0.391465,-0.0854 -0.734324,-0.35508 -0.894003,-0.70311 -0.08233,-0.1794 -0.09424,-0.24465 -0.09479,-0.51854 -5.54e-4,-0.28386 0.0091,-0.33397 0.103413,-0.53293 0.124064,-0.26188 0.312312,-0.45425 0.566791,-0.57921 0.171254,-0.0841 0.217977,-0.0916 0.565947,-0.0916 0.34768,0 0.39479,0.008 0.565349,0.0913 0.385729,0.18943 0.624236,0.57106 0.648882,1.03824 l 0.01434,0.2721 h -0.961036 -0.961027 l 0.04997,0.12367 c 0.0643,0.15918 0.272827,0.34836 0.438715,0.39805 0.278958,0.0835 0.627764,0.0378 0.847342,-0.11121 0.138903,-0.0943 0.149863,-0.0899 0.321556,0.12684 l 0.104098,0.13145 -0.0971,0.0808 c -0.05339,0.0445 -0.188784,0.12494 -0.300842,0.1788 -0.166575,0.0801 -0.256802,0.10034 -0.49471,0.11099 -0.160048,0.007 -0.350354,1.2e-4 -0.422919,-0.0156 z m 0.939961,-1.44849 c 0,-0.0864 -0.111285,-0.27136 -0.225163,-0.37423 -0.37894,-0.34236 -0.988716,-0.16664 -1.141595,0.32898 l -0.02287,0.0742 h 0.694822 c 0.382151,0 0.694824,-0.013 0.694824,-0.029 z m 1.893343,1.44613 c -0.725536,-0.14385 -1.149906,-0.84519 -0.95486,-1.57805 0.105286,-0.39557 0.463608,-0.74296 0.85719,-0.83105 0.27783,-0.0622 0.69164,-0.0259 0.9135,0.08 0.38239,0.18256 0.61736,0.55686 0.64692,1.03048 l 0.0173,0.27724 h -0.9611 c -0.52862,0 -0.961118,0.008 -0.961118,0.0177 0,0.0661 0.150089,0.28919 0.249916,0.37147 0.256782,0.21167 0.736922,0.23191 1.039512,0.0438 0.0914,-0.0568 0.17119,-0.10327 0.17736,-0.10327 0.006,0 0.0744,0.0755 0.15159,0.16763 l 0.14035,0.16764 -0.0961,0.0804 c -0.30866,0.25838 -0.776,0.36403 -1.22049,0.27591 z m 0.9246,-1.49138 c -0.14316,-0.46409 -0.68984,-0.65277 -1.093862,-0.37755 -0.0991,0.0675 -0.272906,0.33181 -0.272906,0.41498 0,0.0258 0.205946,0.0368 0.694828,0.0368 h 0.69482 z m 15.70098,1.48182 c -0.56205,-0.14406 -0.90855,-0.56402 -0.93429,-1.13238 -0.0151,-0.33366 0.0478,-0.56829 0.21186,-0.78987 0.2715,-0.36672 0.62419,-0.52259 1.13469,-0.50148 0.25001,0.0103 0.35115,0.0304 0.5005,0.0993 0.26092,0.12039 0.46862,0.32326 0.59614,0.58225 0.0969,0.19685 0.10718,0.24621 0.10718,0.51524 0,0.58192 -0.28897,1.00703 -0.80804,1.18869 -0.20292,0.071 -0.6058,0.0901 -0.80804,0.0383 z m 0.66366,-0.52249 c 0.38073,-0.17896 0.51609,-0.74449 0.27254,-1.13858 -0.14367,-0.23248 -0.51184,-0.35612 -0.81096,-0.27238 -0.50143,0.14039 -0.67767,0.82827 -0.31944,1.2468 0.0657,0.0767 0.16591,0.15986 0.22276,0.18479 0.16342,0.0717 0.45924,0.062 0.6351,-0.0207 z m 2.24257,0.53129 c -0.21289,-0.0532 -0.51389,-0.23301 -0.63267,-0.37796 -0.21369,-0.26081 -0.26176,-0.41547 -0.26122,-0.84057 3.4e-4,-0.31829 0.012,-0.40431 0.0719,-0.53486 0.0999,-0.2177 0.34754,-0.47025 0.56666,-0.57786 0.16843,-0.0827 0.21889,-0.0911 0.54829,-0.0911 0.37591,0 0.4498,0.0213 0.70085,0.20198 l 0.0742,0.0534 v -0.59769 -0.59768 h 0.29684 0.29683 v 1.68204 1.68203 h -0.28034 -0.28034 v -0.15459 -0.15457 l -0.0907,0.0868 c -0.20988,0.201 -0.67882,0.30337 -1.01027,0.22055 z m 0.70521,-0.53696 c 0.38086,-0.19281 0.51025,-0.74446 0.26238,-1.11868 -0.21886,-0.33042 -0.70749,-0.41528 -1.02898,-0.17872 -0.31882,0.23459 -0.38065,0.80513 -0.12133,1.11971 0.2079,0.25224 0.58974,0.32865 0.88793,0.17769 z m 2.38167,0.52043 c -0.21684,-0.0584 -0.37808,-0.16596 -0.50273,-0.33546 -0.16657,-0.2265 -0.19691,-0.42709 -0.19691,-1.30222 v -0.78462 h 0.27819 0.27819 l 0.0103,0.7833 c 0.0122,0.91921 0.0302,0.98552 0.30528,1.1271 0.14596,0.0751 0.1714,0.0782 0.36455,0.0451 0.2527,-0.0433 0.38834,-0.13744 0.48622,-0.33752 0.068,-0.13898 0.0745,-0.2061 0.0859,-0.88422 l 0.0124,-0.73383 h 0.27677 0.27676 v 1.2203 1.22029 h -0.28034 -0.28034 v -0.1335 -0.1335 l -0.14111,0.0971 c -0.27651,0.19026 -0.62695,0.24486 -0.97322,0.15165 z m 3.16261,-8.7e-4 c -0.461,-0.12398 -0.75922,-0.40775 -0.89829,-0.8548 -0.0169,-0.0544 -0.0309,-0.21208 -0.0311,-0.35036 -8.8e-4,-0.55665 0.2976,-0.97168 0.82734,-1.15054 0.17846,-0.0602 0.26898,-0.0702 0.5439,-0.0596 0.2998,0.0115 0.34887,0.0229 0.5393,0.1251 0.13215,0.071 0.25101,0.1668 0.3219,0.25965 0.0618,0.0809 0.10855,0.15077 0.10382,0.15514 -0.004,0.004 -0.10288,0.063 -0.21813,0.13035 l -0.20956,0.1224 -0.0905,-0.0991 c -0.27484,-0.30092 -0.75457,-0.31115 -1.04347,-0.0223 -0.28061,0.28063 -0.2901,0.79497 -0.0201,1.08303 0.26536,0.283 0.763,0.29064 1.0297,0.0158 l 0.11835,-0.12193 0.2227,0.12421 0.2227,0.12422 -0.11046,0.14527 c -0.2673,0.35147 -0.81175,0.50691 -1.30814,0.37342 z m 2.58557,0.0236 c -0.25959,-0.0677 -0.46046,-0.24992 -0.5286,-0.47937 -0.0356,-0.11999 -0.0485,-0.33761 -0.0485,-0.81719 v -0.65363 h -0.19789 -0.19789 v -0.23087 -0.23087 h 0.19789 0.19789 v -0.28034 -0.28034 h 0.28033 0.28034 v 0.28034 0.28034 h 0.32982 0.3298 v 0.23087 0.23087 h -0.33176 -0.33179 l 0.0102,0.64082 c 0.009,0.5901 0.0157,0.64819 0.0793,0.73384 0.0964,0.12972 0.26867,0.16877 0.44279,0.10043 l 0.13518,-0.0531 0.0622,0.14516 c 0.0996,0.23251 0.0963,0.25648 -0.0456,0.32576 -0.13964,0.0682 -0.50213,0.0995 -0.66371,0.0574 z m 1.61035,-0.0203 c -0.21975,-0.0398 -0.60442,-0.18661 -0.60442,-0.23057 0,-0.0343 0.19825,-0.41314 0.21616,-0.41314 0.009,0 0.0758,0.0298 0.14724,0.0663 0.32294,0.16476 0.88291,0.20859 1.07304,0.084 0.16663,-0.10917 0.15913,-0.30824 -0.0143,-0.37897 -0.0476,-0.0195 -0.25673,-0.0657 -0.46488,-0.10291 -0.61047,-0.10914 -0.79433,-0.22953 -0.86499,-0.56636 -0.0707,-0.33705 0.0966,-0.63341 0.44393,-0.78636 0.31993,-0.1409 1.00707,-0.12435 1.36235,0.0328 l 0.14726,0.0652 -0.10376,0.21041 -0.10377,0.21044 -0.19689,-0.0796 c -0.39066,-0.15781 -0.94995,-0.0971 -1.0016,0.10872 -0.0524,0.20908 0.0558,0.2792 0.58235,0.37688 0.4885,0.0906 0.69582,0.18884 0.81001,0.38368 0.0745,0.12717 0.0843,0.17573 0.0727,0.35912 -0.0111,0.17529 -0.0309,0.23371 -0.11368,0.33697 -0.25385,0.31653 -0.76609,0.43598 -1.38674,0.32337 z m -57.052819,-0.0253 c -0.05684,-0.15052 -1.03776,-3.11291 -1.03776,-3.13404 0,-0.0145 0.136687,-0.0221 0.303748,-0.0169 l 0.30375,0.009 0.381815,1.15434 c 0.209998,0.63489 0.388871,1.17342 0.397492,1.19673 0.0086,0.0234 0.201018,-0.49977 0.42755,-1.16243 l 0.411875,-1.20483 0.269346,-1.1e-4 0.269349,-1.3e-4 0.403093,1.2093 0.403097,1.20929 0.176603,-0.50844 c 0.09713,-0.27965 0.281827,-0.82384 0.410431,-1.20931 l 0.23383,-0.70084 h 0.277599 c 0.152675,0 0.277597,0.0113 0.277597,0.025 0,0.0137 -0.234979,0.72985 -0.522172,1.59134 l -0.522168,1.56634 -0.314749,0.009 -0.314748,0.009 -0.197522,-0.57007 c -0.108637,-0.31355 -0.284447,-0.83319 -0.390688,-1.15477 -0.106246,-0.3216 -0.202849,-0.5739 -0.214683,-0.56069 -0.01182,0.0132 -0.173761,0.46927 -0.359848,1.01347 -0.186083,0.54418 -0.360031,1.0525 -0.386546,1.1296 l -0.04821,0.14016 h -0.311254 c -0.218713,0 -0.315883,-0.0123 -0.326824,-0.0413 z m 8.262922,-1.6408 v -1.68204 h 0.279873 0.279855 l 0.0088,1.00236 0.0088,1.00236 0.586089,-0.54062 0.586089,-0.54063 h 0.336985 0.336983 l -0.506769,0.50756 c -0.362192,0.36276 -0.498931,0.52036 -0.479317,0.55244 0.01504,0.0247 0.24937,0.32686 0.520605,0.67151 0.271236,0.34466 0.507472,0.6452 0.524977,0.66786 0.02498,0.0323 -0.04213,0.0412 -0.31277,0.0412 h -0.34461 l -0.409752,-0.5091 c -0.225364,-0.28 -0.418353,-0.51004 -0.428873,-0.51121 -0.01047,-8.8e-4 -0.110694,0.0808 -0.222621,0.18206 l -0.203507,0.18416 v 0.32705 0.32704 h -0.28034 -0.280339 z m 20.844097,0.46173 v -1.22027 h 0.28034 0.28034 v 1.2203 1.2203 h -0.28034 -0.28034 z m 1.31925,0 v -1.22027 h 0.26385 0.26384 v 0.14896 0.14896 l 0.16064,-0.11051 c 0.22415,-0.15417 0.40839,-0.1984 0.75383,-0.18091 0.42549,0.0216 0.67137,0.17323 0.84196,0.51939 0.0702,0.14246 0.0746,0.19577 0.0842,1.03247 l 0.0102,0.88224 h -0.28065 -0.28064 l -0.0101,-0.7833 c -0.009,-0.67348 -0.0181,-0.79949 -0.0687,-0.89874 -0.0937,-0.18405 -0.20484,-0.24511 -0.46889,-0.25777 -0.29904,-0.0144 -0.48784,0.0763 -0.61016,0.29307 -0.0802,0.14212 -0.0828,0.16651 -0.0929,0.89642 l -0.0104,0.75032 h -0.2781 -0.27811 z m 10.65291,0 v -1.22027 h 0.26032 c 0.28629,0 0.30036,0.0101 0.30036,0.2155 v 0.11117 l 0.0907,-0.0842 c 0.12727,-0.11824 0.30738,-0.20432 0.4752,-0.22711 0.0789,-0.0106 0.17659,-0.0263 0.21741,-0.0345 0.0722,-0.0146 0.0743,-0.008 0.0743,0.26011 v 0.27514 l -0.18098,0.005 c -0.2777,0.007 -0.49932,0.1431 -0.60338,0.36968 -0.042,0.0915 -0.0556,0.26421 -0.0659,0.83279 l -0.0129,0.71733 h -0.27755 -0.27755 z m -11.86145,-1.64707 c -0.10963,-0.0469 -0.17667,-0.16832 -0.17667,-0.31977 0,-0.1869 0.13677,-0.3089 0.3463,-0.3089 0.21229,0 0.34631,0.12167 0.34631,0.31442 0,0.20122 -0.10171,0.31443 -0.29792,0.33163 -0.081,0.007 -0.17915,-5.6e-4 -0.21802,-0.0173 z"
       id="path1060806" />
  </g>
</svg>
